<?xml version="1.0" standalone="no"?>
<!DOCTYPE svg PUBLIC "-//W3C//DTD SVG 20010904//EN"
 "http://www.w3.org/TR/2001/REC-SVG-20010904/DTD/svg10.dtd">
<svg version="1.0" xmlns="http://www.w3.org/2000/svg"
 width="3287.000000pt" height="815.000000pt" viewBox="0 0 3287.000000 815.000000"
 preserveAspectRatio="xMidYMid meet">

<g transform="translate(0.000000,815.000000) scale(0.100000,-0.100000)"
fill="#ffffff" stroke="none">
<path d="M3755 8130 c-747 -37 -1470 -290 -2085 -730 -334 -239 -664 -569
-897 -896 -387 -543 -618 -1133 -710 -1814 -14 -107 -18 -202 -18 -460 0 -340
6 -419 50 -678 279 -1622 1575 -2914 3197 -3186 244 -41 369 -51 658 -51 377
0 627 30 963 116 898 230 1683 768 2227 1530 402 561 649 1238 709 1944 14
154 14 476 1 630 -118 1376 -927 2573 -2156 3188 -456 228 -1006 377 -1484
402 -235 11 -299 12 -455 5z m565 -470 c659 -76 1234 -312 1770 -726 143 -111
438 -403 554 -549 822 -1035 993 -2409 449 -3600 -458 -999 -1384 -1735 -2458
-1950 -236 -48 -422 -65 -692 -65 -407 0 -736 54 -1106 180 -1198 408 -2089
1454 -2296 2695 -66 393 -62 834 10 1215 148 781 565 1492 1179 2009 551 463
1225 740 1951 801 129 11 511 5 639 -10z"/>
<path d="M2080 6395 l0 -455 1360 0 1360 0 0 -1360 0 -1360 455 0 455 0 -2
1443 -3 1442 -28 88 c-53 171 -126 287 -259 413 -93 87 -195 150 -308 190
-156 55 -114 53 -1627 54 l-1403 0 0 -455z"/>
<path d="M2080 3808 c1 -1531 -1 -1474 59 -1637 44 -121 102 -212 195 -309
134 -140 287 -225 471 -263 85 -18 164 -19 1498 -19 l1407 0 0 455 0 455
-1360 0 -1360 0 0 1360 0 1360 -455 0 -455 0 0 -1402z"/>
<path d="M10370 6004 c-14 -2 -59 -9 -100 -15 -105 -15 -279 -62 -382 -103
-403 -163 -723 -455 -919 -838 -488 -957 -10 -2129 1007 -2467 217 -73 298
-85 554 -86 197 0 239 3 339 23 227 46 454 139 636 261 l90 60 3 -174 2 -175
430 0 430 0 0 1715 0 1715 -430 0 -430 0 0 -130 c0 -71 -2 -130 -4 -130 -3 0
-41 24 -85 54 -292 195 -634 298 -986 294 -71 0 -141 -2 -155 -4z m357 -829
c371 -79 661 -368 737 -737 20 -96 21 -272 2 -370 -72 -368 -362 -663 -730
-745 -110 -25 -309 -22 -421 5 -268 66 -503 257 -625 507 -70 141 -94 247 -94
410 0 266 80 468 263 659 138 143 332 247 521 279 64 11 284 6 347 -8z"/>
<path d="M13800 6004 c-181 -26 -285 -56 -410 -119 -403 -203 -617 -622 -531
-1040 40 -194 125 -342 296 -511 150 -149 308 -253 642 -423 289 -146 363
-191 439 -268 88 -87 118 -172 94 -262 -17 -64 -106 -150 -185 -181 -89 -33
-218 -38 -322 -12 -167 42 -347 147 -492 288 l-89 85 -265 -288 -265 -288 31
-40 c56 -72 200 -211 283 -272 153 -113 354 -201 557 -245 139 -30 503 -33
641 -5 267 54 465 155 631 322 135 135 214 272 263 455 22 84 26 115 26 265 0
144 -3 183 -22 259 -49 193 -135 339 -284 481 -137 130 -313 241 -676 424
-174 88 -345 178 -379 200 -70 45 -117 104 -127 156 -16 82 42 173 137 216 45
21 67 24 167 24 104 -1 122 -4 191 -31 94 -38 219 -119 325 -212 l81 -70 267
267 266 266 -79 91 c-266 305 -653 477 -1066 473 -66 -1 -131 -3 -145 -5z"/>
<path d="M24898 5995 c-275 -38 -557 -150 -788 -313 -122 -86 -326 -290 -412
-412 -245 -346 -362 -788 -317 -1198 37 -341 167 -659 380 -927 73 -93 254
-262 359 -337 190 -135 439 -241 682 -290 98 -20 142 -23 338 -23 195 1 239 4
330 23 229 50 466 149 639 267 45 30 84 55 86 55 3 0 5 -79 5 -175 l0 -175
430 0 430 0 0 1715 0 1715 -430 0 -430 0 0 -130 c0 -71 -3 -130 -6 -130 -3 0
-47 27 -97 61 -221 146 -491 244 -767 278 -112 14 -311 12 -432 -4z m430 -821
c369 -75 672 -390 738 -766 52 -296 -50 -612 -266 -828 -287 -288 -723 -359
-1085 -178 -245 123 -419 334 -497 604 -20 68 -23 101 -22 244 0 194 16 266
90 415 129 260 371 449 650 509 94 20 295 20 392 0z"/>
<path d="M28850 5995 c-238 -51 -446 -214 -566 -445 l-29 -55 -3 213 -2 212
-370 0 -370 0 0 -1715 0 -1715 430 0 430 0 0 908 c0 927 5 1081 40 1292 54
326 184 519 378 560 61 14 135 2 225 -35 34 -14 66 -27 70 -28 7 -2 280 735
274 739 -1 0 -31 12 -67 26 -145 57 -302 72 -440 43z"/>
<path d="M30770 6000 c-439 -54 -805 -245 -1098 -573 -322 -363 -475 -838
-441 -1379 18 -299 106 -589 248 -818 171 -276 447 -526 721 -653 286 -134
560 -185 934 -174 535 15 928 169 1250 492 79 79 223 252 215 259 -2 1 -165
78 -362 170 l-358 168 -32 -26 c-179 -147 -326 -229 -492 -272 -133 -35 -391
-45 -531 -20 -344 59 -612 284 -719 603 -19 54 -36 117 -40 141 l-7 42 1387 0
1388 0 -6 223 c-12 433 -100 747 -295 1047 -262 404 -661 662 -1162 752 -131
23 -472 33 -600 18z m538 -749 c272 -69 513 -267 618 -509 19 -42 34 -85 34
-94 0 -17 -51 -18 -930 -18 -511 0 -930 3 -930 6 0 3 23 51 52 106 59 115 144
234 211 295 118 108 300 195 480 229 107 20 358 12 465 -15z"/>
<path d="M18064 5923 l-321 -3 -724 -704 -724 -704 -3 704 -2 704 -430 0 -430
0 0 -1715 0 -1715 430 0 430 0 2 787 3 786 725 -786 724 -787 535 0 535 0 -30
32 c-17 18 -370 400 -784 848 -414 448 -773 835 -797 860 l-43 46 667 657
c366 362 670 654 674 650 4 -4 257 -701 562 -1548 l555 -1540 273 0 273 0 368
955 c202 525 371 964 376 974 6 15 98 -220 373 -955 l365 -974 275 -3 275 -2
377 1032 c207 568 489 1340 626 1716 l249 682 -425 -2 -425 -3 -340 -950
c-187 -522 -343 -954 -347 -958 -4 -4 -158 390 -341 875 -183 486 -346 918
-362 961 l-30 77 -260 -2 -259 -3 -359 -945 c-383 -1008 -378 -995 -385 -988
-3 2 -158 438 -346 969 -187 530 -341 964 -342 965 -5 5 -882 10 -1163 7z"/>
<path d="M17430 1065 l0 -656 68 3 67 3 5 209 5 208 194 -211 193 -211 94 0
c52 0 94 3 94 6 0 3 -96 105 -212 225 -117 121 -213 224 -213 229 0 4 89 101
198 214 l199 206 -94 0 -93 0 -180 -197 -180 -197 -5 409 -5 410 -67 3 -68 3
0 -656z"/>
<path d="M20945 1708 c-3 -7 -4 -301 -3 -653 l3 -640 67 -3 66 -3 4 293 c4
317 5 327 64 403 81 107 251 120 331 26 47 -55 53 -103 53 -423 l0 -298 71 0
70 0 -3 343 c-4 377 -7 395 -69 470 -46 56 -100 80 -195 85 -125 7 -182 -14
-261 -94 l-63 -64 0 285 0 285 -65 0 c-43 0 -67 -4 -70 -12z"/>
<path d="M26772 1690 c-28 -12 -52 -66 -45 -103 12 -63 98 -88 150 -43 35 30
39 95 7 126 -24 24 -79 34 -112 20z"/>
<path d="M15915 1633 c-60 -154 -465 -1214 -465 -1218 0 -3 35 -5 78 -5 l77 0
62 172 61 173 263 0 263 0 62 -161 c33 -89 64 -166 68 -173 4 -6 37 -11 83
-11 67 0 74 2 69 18 -4 9 -111 288 -238 620 l-231 602 -73 0 c-59 0 -73 -3
-79 -17z m194 -483 c50 -134 91 -248 91 -252 0 -4 -94 -8 -210 -8 -115 0 -210
1 -210 3 0 2 44 125 98 273 55 148 102 283 107 299 7 30 7 29 20 -20 8 -27 55
-160 104 -295z"/>
<path d="M24778 1528 l-58 -20 0 -109 0 -109 -75 0 -75 0 0 -60 0 -60 75 0 75
0 0 -292 c0 -166 4 -309 10 -329 28 -99 99 -149 216 -149 39 0 85 5 103 11 30
11 31 13 31 69 l0 58 -42 -15 c-74 -25 -145 2 -169 64 -5 13 -9 150 -9 304 l0
279 110 0 110 0 0 60 0 60 -110 0 -110 0 0 130 c0 98 -3 130 -12 129 -7 0 -39
-10 -70 -21z"/>
<path d="M16857 1299 c-155 -36 -245 -169 -207 -305 19 -66 71 -116 166 -160
200 -92 225 -106 245 -137 36 -61 16 -132 -46 -161 -80 -38 -212 -29 -310 22
-27 15 -53 28 -57 30 -5 2 -8 -30 -8 -72 l0 -75 68 -22 c147 -46 340 -21 431
58 111 95 108 263 -6 349 -23 17 -94 53 -159 80 -68 29 -131 62 -151 80 -29
27 -33 38 -33 80 1 72 41 112 132 128 48 9 160 -10 209 -34 21 -11 41 -20 44
-20 3 0 5 31 5 69 l0 68 -58 17 c-63 17 -201 20 -265 5z"/>
<path d="M19893 1295 c-132 -41 -203 -127 -203 -244 1 -110 63 -174 244 -250
151 -63 189 -97 189 -166 0 -36 -5 -51 -28 -75 -59 -62 -210 -64 -334 -5 l-71
34 0 -74 0 -74 73 -23 c98 -30 216 -30 316 1 127 39 202 139 189 254 -12 101
-70 162 -211 219 -133 54 -181 81 -204 117 -28 41 -29 76 -4 117 29 47 83 68
171 67 69 -1 97 -8 193 -48 15 -6 17 0 17 63 l0 69 -58 17 c-70 19 -219 20
-279 1z"/>
<path d="M22149 1287 c-123 -42 -206 -123 -251 -243 -18 -49 -22 -81 -22 -194
-1 -116 2 -143 21 -193 64 -169 208 -262 403 -260 196 2 331 93 402 272 18 47
22 76 22 186 1 111 -2 140 -22 195 -61 175 -191 260 -396 260 -68 0 -108 -6
-157 -23z m289 -124 c86 -41 134 -125 147 -260 20 -200 -65 -353 -212 -384
-145 -30 -275 36 -336 170 -18 38 -21 66 -22 161 0 105 2 120 28 175 33 70 67
109 120 137 85 43 185 44 275 1z"/>
<path d="M25479 1287 c-198 -68 -288 -222 -277 -473 6 -123 21 -174 75 -252
166 -243 594 -216 727 47 106 208 57 507 -102 628 -97 73 -288 96 -423 50z
m288 -123 c114 -54 172 -214 144 -395 -22 -137 -96 -226 -207 -249 -106 -22
-201 3 -271 72 -69 68 -88 122 -88 258 0 105 2 120 28 175 33 70 67 109 120
137 85 43 185 44 274 2z"/>
<path d="M27469 1296 c-59 -21 -106 -54 -139 -98 l-30 -42 0 67 0 67 -70 0
-70 0 0 -440 0 -441 68 3 67 3 5 305 5 305 31 55 c18 31 49 68 72 84 36 26 51
30 107 29 83 -1 132 -30 166 -100 24 -47 24 -55 27 -366 l3 -317 70 0 69 0 0
273 c0 151 5 292 11 317 14 61 64 136 111 168 33 21 51 26 103 25 78 -1 126
-27 158 -87 21 -39 22 -54 27 -366 l5 -325 68 -3 68 -3 -3 348 c-3 339 -4 349
-26 399 -29 64 -84 119 -141 139 -25 8 -77 15 -120 15 -118 0 -206 -49 -272
-150 l-16 -24 -17 36 c-24 50 -96 114 -142 127 -52 15 -151 13 -195 -3z"/>
<path d="M28977 1290 c-61 -24 -111 -61 -148 -113 l-29 -40 0 76 0 77 -70 0
-70 0 0 -640 0 -640 70 0 70 0 0 265 0 264 45 -48 c64 -69 128 -95 230 -94
182 1 308 102 366 293 32 102 32 275 1 369 -40 123 -117 206 -218 237 -67 20
-188 17 -247 -6z m201 -117 c51 -24 110 -99 128 -161 25 -86 16 -259 -17 -332
-49 -104 -108 -153 -206 -166 -105 -13 -210 44 -258 141 -17 34 -20 61 -20
190 0 143 1 152 27 200 27 51 62 89 109 119 58 37 169 41 237 9z"/>
<path d="M29987 1296 c-59 -21 -100 -59 -135 -122 l-31 -59 -1 88 0 87 -70 0
-70 0 0 -440 0 -440 69 0 70 0 3 283 c4 239 7 289 22 329 23 62 87 134 133
149 40 13 127 6 149 -12 12 -10 14 1 14 64 0 69 -2 75 -22 81 -37 9 -90 6
-131 -8z"/>
<path d="M30508 1291 c-75 -24 -116 -51 -172 -111 -102 -109 -142 -295 -101
-469 62 -260 326 -384 600 -280 69 26 159 108 194 177 69 135 69 369 0 504
-34 67 -103 133 -172 164 -55 25 -75 29 -177 31 -91 2 -127 -1 -172 -16z m257
-113 c110 -40 175 -160 175 -320 0 -182 -68 -296 -197 -334 -105 -31 -235 3
-297 77 -107 127 -112 361 -11 493 68 90 214 126 330 84z"/>
<path d="M32343 1291 c-134 -46 -232 -165 -264 -321 -16 -79 -6 -251 19 -322
60 -168 183 -251 372 -251 109 0 173 13 248 49 l52 25 0 65 c0 35 -3 64 -6 64
-3 0 -18 -9 -33 -19 -61 -44 -132 -64 -226 -65 -75 -1 -98 3 -137 22 -85 42
-135 120 -153 240 l-7 42 312 0 313 0 -5 108 c-10 202 -86 323 -234 368 -66
20 -187 17 -251 -5z m227 -116 c60 -31 105 -103 116 -183 l7 -52 -237 0 -236
0 0 23 c1 28 34 102 65 143 63 82 196 114 285 69z"/>
<path d="M18740 990 c0 -309 6 -372 42 -445 42 -84 101 -126 206 -145 130 -23
243 21 319 125 l22 30 1 -72 0 -73 70 0 70 0 0 440 0 440 -70 0 -70 0 0 -265
c0 -152 -5 -285 -11 -315 -46 -216 -313 -272 -412 -86 -21 39 -22 54 -25 354
l-3 312 -70 0 -69 0 0 -300z"/>
<path d="M22830 1280 c0 -8 117 -398 231 -772 l30 -98 68 0 68 0 107 348 c59
191 109 352 111 357 2 6 4 1 4 -10 1 -11 45 -172 98 -357 l97 -338 71 0 71 0
128 427 c70 234 130 432 133 440 4 10 -10 13 -66 13 -39 0 -71 -2 -71 -4 0 -3
-42 -162 -94 -354 -52 -192 -96 -357 -99 -368 -4 -16 -5 -15 -6 4 0 13 -44
179 -96 369 -52 190 -95 347 -95 350 0 2 -30 3 -67 1 l-66 -3 -103 -335 c-56
-184 -105 -348 -110 -365 -7 -29 -8 -29 -12 -5 -3 24 -163 611 -183 678 l-11
32 -69 0 c-39 0 -69 -4 -69 -10z"/>
<path d="M26742 853 l3 -438 68 -3 67 -3 0 441 0 440 -70 0 -70 0 2 -437z"/>
<path d="M31175 1273 c11 -30 306 -806 317 -835 10 -27 13 -28 77 -28 l68 0
171 433 c95 238 172 436 172 440 0 4 -32 7 -71 5 l-72 -3 -118 -325 c-65 -179
-124 -347 -130 -374 l-12 -50 -13 49 c-7 28 -64 196 -127 375 l-113 325 -78 3
c-72 3 -78 1 -71 -15z"/>
</g>
</svg>
